<svg xmlns="http://www.w3.org/2000/svg" version="1.1" xmlns:xlink="http://www.w3.org/1999/xlink" width="200" height="200"><svg xmlns="http://www.w3.org/2000/svg" version="1.1" xmlns:xlink="http://www.w3.org/1999/xlink" width="200" height="200"><svg xmlns="http://www.w3.org/2000/svg" version="1.1" xmlns:xlink="http://www.w3.org/1999/xlink" viewBox="0 0 200 200"><rect width="200" height="200" fill="url('#gradient')"></rect><defs><linearGradient id="gradient" gradientTransform="rotate(45 0.5 0.5)"><stop offset="0%" stop-color="#e8d4de"></stop><stop offset="100%" stop-color="#bdcabc"></stop></linearGradient></defs><g><g fill="#d13a80" transform="matrix(12.312625250501002,0,0,12.312625250501002,8.576998893388051,187.54701945968048)" stroke="#d21d81" stroke-width="0.2"><path d="M0.88-10.79L0.88-11.48Q0.88-12.80 1.74-13.61Q2.60-14.42 4.04-14.42L4.04-14.42Q5.51-14.42 6.36-13.62Q7.21-12.81 7.21-11.44L7.21-11.44L7.21-10.73Q7.21-9.41 6.36-8.61Q5.51-7.81 4.06-7.81L4.06-7.81Q2.63-7.81 1.75-8.61Q0.88-9.40 0.88-10.79L0.88-10.79ZM3.00-11.46L3.00-10.73Q3.00-10.22 3.28-9.91Q3.56-9.59 4.06-9.59L4.06-9.59Q5.09-9.59 5.09-10.90L5.09-10.90L5.09-11.48Q5.09-11.99 4.81-12.32Q4.54-12.65 4.04-12.65L4.04-12.65Q3.56-12.65 3.28-12.33Q3.00-12.01 3.00-11.46L3.00-11.46ZM7.64-2.78L7.64-3.49Q7.64-4.81 8.50-5.62Q9.37-6.42 10.80-6.42L10.80-6.42Q12.26-6.42 13.12-5.63Q13.97-4.83 13.97-3.42L13.97-3.42L13.97-2.73Q13.97-1.41 13.13-0.61Q12.28 0.20 10.82 0.20L10.82 0.20Q9.38 0.20 8.51-0.60Q7.64-1.40 7.64-2.78L7.64-2.78ZM9.75-3.54L9.75-2.73Q9.75-2.28 10.06-1.93Q10.37-1.58 10.82-1.58L10.82-1.58Q11.77-1.58 11.85-2.48L11.85-2.48L11.86-3.49Q11.86-4.00 11.57-4.32Q11.29-4.64 10.80-4.64L10.80-4.64Q10.33-4.64 10.05-4.34Q9.77-4.04 9.75-3.54L9.75-3.54ZM11.63-12.18L4.69-1.06L3.15-1.84L10.10-12.95L11.63-12.18Z"></path></g></g></svg></svg><style>@media (prefers-color-scheme: light) { :root { filter: none; } }
@media (prefers-color-scheme: dark) { :root { filter: none; } }
</style></svg>